<mxfile host="Electron" agent="Mozilla/5.0 (Windows NT 10.0; Win64; x64) AppleWebKit/537.36 (KHTML, like Gecko) draw.io/24.7.17 Chrome/128.0.6613.36 Electron/32.0.1 Safari/537.36" version="24.7.17">
  <diagram name="Page-1" id="KHDGIGhGzWFDvoNnHqS8">
    <mxGraphModel dx="875" dy="558" grid="1" gridSize="10" guides="1" tooltips="1" connect="1" arrows="1" fold="1" page="1" pageScale="1" pageWidth="850" pageHeight="1100" math="0" shadow="0">
      <root>
        <mxCell id="0" />
        <mxCell id="1" parent="0" />
        <mxCell id="Y5e2X1rM77SaJahhi9rT-28" value="App Server" style="swimlane;horizontal=0;whiteSpace=wrap;html=1;movable=1;resizable=1;rotatable=1;deletable=1;editable=1;locked=0;connectable=1;" parent="1" vertex="1">
          <mxGeometry x="20" y="240" width="870" height="120" as="geometry">
            <mxRectangle x="30" y="80" width="40" height="60" as="alternateBounds" />
          </mxGeometry>
        </mxCell>
        <mxCell id="WTSWxPClVqbjlggbp4Lp-15" value="Validate email" style="html=1;align=center;verticalAlign=middle;rounded=1;absoluteArcSize=1;arcSize=19;dashed=0;whiteSpace=wrap;" parent="Y5e2X1rM77SaJahhi9rT-28" vertex="1">
          <mxGeometry x="60" y="40" width="90" height="40" as="geometry" />
        </mxCell>
        <mxCell id="Y5e2X1rM77SaJahhi9rT-92" value="Send code&lt;div&gt;to email&lt;/div&gt;" style="html=1;align=center;verticalAlign=middle;rounded=1;absoluteArcSize=1;arcSize=19;dashed=0;whiteSpace=wrap;" parent="Y5e2X1rM77SaJahhi9rT-28" vertex="1">
          <mxGeometry x="260" y="45" width="90" height="40" as="geometry" />
        </mxCell>
        <mxCell id="WTSWxPClVqbjlggbp4Lp-44" value="" style="html=1;points=[];perimeter=orthogonalPerimeter;fillColor=strokeColor;rotation=90;" parent="Y5e2X1rM77SaJahhi9rT-28" vertex="1">
          <mxGeometry x="220" y="60" width="5" height="80" as="geometry" />
        </mxCell>
        <mxCell id="WTSWxPClVqbjlggbp4Lp-64" style="edgeStyle=orthogonalEdgeStyle;rounded=1;orthogonalLoop=1;jettySize=auto;html=1;exitX=1;exitY=0.5;exitDx=0;exitDy=0;entryX=0;entryY=0.5;entryDx=0;entryDy=0;curved=0;endArrow=open;endFill=0;" parent="Y5e2X1rM77SaJahhi9rT-28" source="WTSWxPClVqbjlggbp4Lp-63" target="WTSWxPClVqbjlggbp4Lp-24" edge="1">
          <mxGeometry relative="1" as="geometry" />
        </mxCell>
        <mxCell id="WTSWxPClVqbjlggbp4Lp-63" value="Validate code" style="html=1;align=center;verticalAlign=middle;rounded=1;absoluteArcSize=1;arcSize=19;dashed=0;whiteSpace=wrap;" parent="Y5e2X1rM77SaJahhi9rT-28" vertex="1">
          <mxGeometry x="460" y="40" width="90" height="40" as="geometry" />
        </mxCell>
        <mxCell id="WTSWxPClVqbjlggbp4Lp-24" value="" style="rhombus;" parent="Y5e2X1rM77SaJahhi9rT-28" vertex="1">
          <mxGeometry x="570" y="45" width="30" height="30" as="geometry" />
        </mxCell>
        <mxCell id="Y5e2X1rM77SaJahhi9rT-29" value="DB Server" style="swimlane;horizontal=0;whiteSpace=wrap;html=1;movable=1;resizable=1;rotatable=1;deletable=1;editable=1;locked=0;connectable=1;" parent="1" vertex="1">
          <mxGeometry x="20" y="360" width="700" height="100" as="geometry">
            <mxRectangle x="30" y="80" width="40" height="60" as="alternateBounds" />
          </mxGeometry>
        </mxCell>
        <mxCell id="WTSWxPClVqbjlggbp4Lp-32" style="edgeStyle=orthogonalEdgeStyle;rounded=1;orthogonalLoop=1;jettySize=auto;html=1;exitX=0.5;exitY=1;exitDx=0;exitDy=0;entryX=0;entryY=0.5;entryDx=0;entryDy=0;curved=0;endArrow=open;endFill=0;" parent="Y5e2X1rM77SaJahhi9rT-29" source="Y5e2X1rM77SaJahhi9rT-32" target="Y5e2X1rM77SaJahhi9rT-88" edge="1">
          <mxGeometry relative="1" as="geometry" />
        </mxCell>
        <mxCell id="Y5e2X1rM77SaJahhi9rT-32" value="Check if&lt;div&gt;email exists&lt;/div&gt;" style="html=1;align=center;verticalAlign=middle;rounded=1;absoluteArcSize=1;arcSize=19;dashed=0;whiteSpace=wrap;" parent="Y5e2X1rM77SaJahhi9rT-29" vertex="1">
          <mxGeometry x="60" y="-10" width="90" height="40" as="geometry" />
        </mxCell>
        <mxCell id="Y5e2X1rM77SaJahhi9rT-88" value="" style="rhombus;" parent="Y5e2X1rM77SaJahhi9rT-29" vertex="1">
          <mxGeometry x="150" y="45" width="30" height="30" as="geometry" />
        </mxCell>
        <mxCell id="WTSWxPClVqbjlggbp4Lp-56" value="" style="html=1;points=[];perimeter=orthogonalPerimeter;fillColor=strokeColor;rotation=90;" parent="Y5e2X1rM77SaJahhi9rT-29" vertex="1">
          <mxGeometry x="330" y="-20" width="5" height="80" as="geometry" />
        </mxCell>
        <mxCell id="WTSWxPClVqbjlggbp4Lp-51" style="edgeStyle=orthogonalEdgeStyle;rounded=1;orthogonalLoop=1;jettySize=auto;html=1;exitX=1;exitY=0.5;exitDx=0;exitDy=0;entryX=0.91;entryY=0.501;entryDx=0;entryDy=0;entryPerimeter=0;curved=0;endArrow=open;endFill=0;" parent="Y5e2X1rM77SaJahhi9rT-29" source="Y5e2X1rM77SaJahhi9rT-88" target="WTSWxPClVqbjlggbp4Lp-56" edge="1">
          <mxGeometry relative="1" as="geometry">
            <mxPoint x="310" y="40" as="targetPoint" />
          </mxGeometry>
        </mxCell>
        <mxCell id="WTSWxPClVqbjlggbp4Lp-53" value="&lt;font style=&quot;font-size: 9px;&quot;&gt;[email doesn&#39;t exist]&lt;/font&gt;" style="edgeLabel;html=1;align=center;verticalAlign=middle;resizable=0;points=[];" parent="WTSWxPClVqbjlggbp4Lp-51" vertex="1" connectable="0">
          <mxGeometry x="-0.7992" y="1" relative="1" as="geometry">
            <mxPoint x="21" y="8" as="offset" />
          </mxGeometry>
        </mxCell>
        <mxCell id="WTSWxPClVqbjlggbp4Lp-67" value="Update email" style="html=1;align=center;verticalAlign=middle;rounded=1;absoluteArcSize=1;arcSize=19;dashed=0;whiteSpace=wrap;" parent="Y5e2X1rM77SaJahhi9rT-29" vertex="1">
          <mxGeometry x="450" y="-20" width="90" height="40" as="geometry" />
        </mxCell>
        <mxCell id="WTSWxPClVqbjlggbp4Lp-72" style="edgeStyle=orthogonalEdgeStyle;rounded=1;orthogonalLoop=1;jettySize=auto;html=1;exitX=0;exitY=0.5;exitDx=0;exitDy=0;entryX=0.5;entryY=0;entryDx=0;entryDy=0;curved=0;endArrow=open;endFill=0;" parent="1" source="Y5e2X1rM77SaJahhi9rT-1" target="WTSWxPClVqbjlggbp4Lp-11" edge="1">
          <mxGeometry relative="1" as="geometry" />
        </mxCell>
        <mxCell id="Y5e2X1rM77SaJahhi9rT-1" value="" style="ellipse;fillColor=strokeColor;html=1;" parent="1" vertex="1">
          <mxGeometry x="830" y="50" width="30" height="30" as="geometry" />
        </mxCell>
        <mxCell id="Y5e2X1rM77SaJahhi9rT-2" value="" style="ellipse;html=1;shape=endState;fillColor=strokeColor;" parent="1" vertex="1">
          <mxGeometry x="890" y="50" width="30" height="30" as="geometry" />
        </mxCell>
        <mxCell id="Y5e2X1rM77SaJahhi9rT-25" value="App UI" style="swimlane;horizontal=0;whiteSpace=wrap;html=1;movable=1;resizable=1;rotatable=1;deletable=1;editable=1;locked=0;connectable=1;" parent="1" vertex="1">
          <mxGeometry x="20" y="120" width="920" height="120" as="geometry">
            <mxRectangle x="30" y="80" width="40" height="60" as="alternateBounds" />
          </mxGeometry>
        </mxCell>
        <mxCell id="Y5e2X1rM77SaJahhi9rT-21" value="User" style="swimlane;horizontal=0;whiteSpace=wrap;html=1;movable=1;resizable=1;rotatable=1;deletable=1;editable=1;locked=0;connectable=1;" parent="Y5e2X1rM77SaJahhi9rT-25" vertex="1">
          <mxGeometry y="-100" width="790" height="100" as="geometry">
            <mxRectangle x="20" y="20" width="40" height="60" as="alternateBounds" />
          </mxGeometry>
        </mxCell>
        <mxCell id="WTSWxPClVqbjlggbp4Lp-60" value="User clicks&amp;nbsp;&lt;div&gt;&quot;Confirm&quot;&lt;/div&gt;" style="html=1;align=center;verticalAlign=middle;rounded=1;absoluteArcSize=1;arcSize=19;dashed=0;whiteSpace=wrap;" parent="Y5e2X1rM77SaJahhi9rT-21" vertex="1">
          <mxGeometry x="670" y="80" width="90" height="40" as="geometry" />
        </mxCell>
        <mxCell id="Y5e2X1rM77SaJahhi9rT-59" value="User clicks&amp;nbsp;&lt;div&gt;&quot;Send Code&quot;&lt;/div&gt;" style="html=1;align=center;verticalAlign=middle;rounded=1;absoluteArcSize=1;arcSize=19;dashed=0;whiteSpace=wrap;" parent="Y5e2X1rM77SaJahhi9rT-25" vertex="1">
          <mxGeometry x="320" y="-20" width="90" height="40" as="geometry" />
        </mxCell>
        <mxCell id="zqb-nu4IpoxOfOdAN-1O-3" style="edgeStyle=orthogonalEdgeStyle;rounded=1;orthogonalLoop=1;jettySize=auto;html=1;exitX=0.5;exitY=0;exitDx=0;exitDy=0;entryX=0.5;entryY=0;entryDx=0;entryDy=0;curved=0;endArrow=open;endFill=0;" edge="1" parent="Y5e2X1rM77SaJahhi9rT-25" source="Y5e2X1rM77SaJahhi9rT-8" target="Y5e2X1rM77SaJahhi9rT-59">
          <mxGeometry relative="1" as="geometry" />
        </mxCell>
        <mxCell id="Y5e2X1rM77SaJahhi9rT-8" value="User enters&lt;div&gt;new email&lt;/div&gt;" style="html=1;align=center;verticalAlign=middle;rounded=1;absoluteArcSize=1;arcSize=19;dashed=0;whiteSpace=wrap;" parent="Y5e2X1rM77SaJahhi9rT-25" vertex="1">
          <mxGeometry x="210" y="-20" width="90" height="40" as="geometry" />
        </mxCell>
        <mxCell id="munvRfBQ2IFROYm9csKq-1" style="edgeStyle=orthogonalEdgeStyle;rounded=1;orthogonalLoop=1;jettySize=auto;html=1;exitX=0.5;exitY=1;exitDx=0;exitDy=0;entryX=0.5;entryY=0;entryDx=0;entryDy=0;curved=0;endArrow=open;endFill=0;" parent="Y5e2X1rM77SaJahhi9rT-25" source="WTSWxPClVqbjlggbp4Lp-11" target="WTSWxPClVqbjlggbp4Lp-17" edge="1">
          <mxGeometry relative="1" as="geometry" />
        </mxCell>
        <mxCell id="WTSWxPClVqbjlggbp4Lp-11" value="Click&lt;div&gt;&quot;Change Email&quot;&lt;/div&gt;" style="html=1;align=center;verticalAlign=middle;rounded=1;absoluteArcSize=1;arcSize=19;dashed=0;whiteSpace=wrap;" parent="Y5e2X1rM77SaJahhi9rT-25" vertex="1">
          <mxGeometry x="60" y="-20" width="90" height="40" as="geometry" />
        </mxCell>
        <mxCell id="zqb-nu4IpoxOfOdAN-1O-4" style="edgeStyle=orthogonalEdgeStyle;rounded=1;orthogonalLoop=1;jettySize=auto;html=1;exitX=1;exitY=0.5;exitDx=0;exitDy=0;entryX=0.25;entryY=1;entryDx=0;entryDy=0;curved=0;endArrow=open;endFill=0;" edge="1" parent="Y5e2X1rM77SaJahhi9rT-25" source="WTSWxPClVqbjlggbp4Lp-17" target="Y5e2X1rM77SaJahhi9rT-8">
          <mxGeometry relative="1" as="geometry" />
        </mxCell>
        <mxCell id="WTSWxPClVqbjlggbp4Lp-17" value="Display&lt;div&gt;email form&lt;/div&gt;" style="html=1;align=center;verticalAlign=middle;rounded=1;absoluteArcSize=1;arcSize=19;dashed=0;whiteSpace=wrap;" parent="Y5e2X1rM77SaJahhi9rT-25" vertex="1">
          <mxGeometry x="60" y="40" width="90" height="40" as="geometry" />
        </mxCell>
        <mxCell id="Y5e2X1rM77SaJahhi9rT-66" value="Request to&lt;div&gt;change email&lt;/div&gt;" style="html=1;align=center;verticalAlign=middle;rounded=1;absoluteArcSize=1;arcSize=19;dashed=0;whiteSpace=wrap;" parent="Y5e2X1rM77SaJahhi9rT-25" vertex="1">
          <mxGeometry x="60" y="90" width="90" height="40" as="geometry" />
        </mxCell>
        <mxCell id="Y5e2X1rM77SaJahhi9rT-75" value="Display&lt;div&gt;error message&lt;/div&gt;" style="html=1;align=center;verticalAlign=middle;rounded=1;absoluteArcSize=1;arcSize=19;dashed=0;whiteSpace=wrap;" parent="Y5e2X1rM77SaJahhi9rT-25" vertex="1">
          <mxGeometry x="430" y="10" width="100" height="40" as="geometry" />
        </mxCell>
        <mxCell id="zqb-nu4IpoxOfOdAN-1O-2" style="edgeStyle=orthogonalEdgeStyle;rounded=1;orthogonalLoop=1;jettySize=auto;html=1;exitX=0.5;exitY=0;exitDx=0;exitDy=0;entryX=0.5;entryY=0;entryDx=0;entryDy=0;curved=0;endArrow=open;endFill=0;" edge="1" parent="Y5e2X1rM77SaJahhi9rT-25" source="WTSWxPClVqbjlggbp4Lp-55" target="WTSWxPClVqbjlggbp4Lp-60">
          <mxGeometry relative="1" as="geometry" />
        </mxCell>
        <mxCell id="WTSWxPClVqbjlggbp4Lp-55" value="User enters code" style="html=1;align=center;verticalAlign=middle;rounded=1;absoluteArcSize=1;arcSize=19;dashed=0;whiteSpace=wrap;" parent="Y5e2X1rM77SaJahhi9rT-25" vertex="1">
          <mxGeometry x="560" y="-20" width="90" height="40" as="geometry" />
        </mxCell>
        <mxCell id="WTSWxPClVqbjlggbp4Lp-90" style="edgeStyle=orthogonalEdgeStyle;rounded=1;orthogonalLoop=1;jettySize=auto;html=1;exitX=1.003;exitY=0.511;exitDx=0;exitDy=0;exitPerimeter=0;entryX=1;entryY=0.25;entryDx=0;entryDy=0;curved=0;endArrow=open;endFill=0;" parent="Y5e2X1rM77SaJahhi9rT-25" source="WTSWxPClVqbjlggbp4Lp-87" target="WTSWxPClVqbjlggbp4Lp-59" edge="1">
          <mxGeometry relative="1" as="geometry">
            <mxPoint x="590" y="100" as="targetPoint" />
          </mxGeometry>
        </mxCell>
        <mxCell id="WTSWxPClVqbjlggbp4Lp-59" value="Request to&lt;div&gt;validate code&lt;/div&gt;" style="html=1;align=center;verticalAlign=middle;rounded=1;absoluteArcSize=1;arcSize=19;dashed=0;whiteSpace=wrap;" parent="Y5e2X1rM77SaJahhi9rT-25" vertex="1">
          <mxGeometry x="460" y="100" width="90" height="40" as="geometry" />
        </mxCell>
        <mxCell id="WTSWxPClVqbjlggbp4Lp-75" value="&lt;div&gt;Display&lt;/div&gt;&lt;div&gt;success message&lt;/div&gt;" style="html=1;align=center;verticalAlign=middle;rounded=1;absoluteArcSize=1;arcSize=19;dashed=0;whiteSpace=wrap;" parent="Y5e2X1rM77SaJahhi9rT-25" vertex="1">
          <mxGeometry x="760" y="40" width="100" height="40" as="geometry" />
        </mxCell>
        <mxCell id="WTSWxPClVqbjlggbp4Lp-80" value="" style="html=1;points=[];perimeter=orthogonalPerimeter;fillColor=strokeColor;rotation=90;" parent="Y5e2X1rM77SaJahhi9rT-25" vertex="1">
          <mxGeometry x="320" y="10" width="5" height="80" as="geometry" />
        </mxCell>
        <mxCell id="WTSWxPClVqbjlggbp4Lp-82" style="edgeStyle=orthogonalEdgeStyle;rounded=1;orthogonalLoop=1;jettySize=auto;html=1;exitX=0.25;exitY=1;exitDx=0;exitDy=0;entryX=-0.031;entryY=0.445;entryDx=0;entryDy=0;entryPerimeter=0;curved=0;endArrow=open;endFill=0;" parent="Y5e2X1rM77SaJahhi9rT-25" source="Y5e2X1rM77SaJahhi9rT-59" target="WTSWxPClVqbjlggbp4Lp-80" edge="1">
          <mxGeometry relative="1" as="geometry">
            <Array as="points">
              <mxPoint x="343" y="30" />
              <mxPoint x="327" y="30" />
            </Array>
          </mxGeometry>
        </mxCell>
        <mxCell id="WTSWxPClVqbjlggbp4Lp-85" style="edgeStyle=orthogonalEdgeStyle;rounded=1;orthogonalLoop=1;jettySize=auto;html=1;exitX=0.75;exitY=1;exitDx=0;exitDy=0;entryX=0.224;entryY=0.747;entryDx=0;entryDy=0;entryPerimeter=0;curved=0;endArrow=open;endFill=0;" parent="Y5e2X1rM77SaJahhi9rT-25" source="Y5e2X1rM77SaJahhi9rT-8" target="WTSWxPClVqbjlggbp4Lp-80" edge="1">
          <mxGeometry relative="1" as="geometry">
            <Array as="points">
              <mxPoint x="278" y="30" />
              <mxPoint x="303" y="30" />
            </Array>
          </mxGeometry>
        </mxCell>
        <mxCell id="WTSWxPClVqbjlggbp4Lp-87" value="" style="html=1;points=[];perimeter=orthogonalPerimeter;fillColor=strokeColor;rotation=90;" parent="Y5e2X1rM77SaJahhi9rT-25" vertex="1">
          <mxGeometry x="680" y="10" width="5" height="80" as="geometry" />
        </mxCell>
        <mxCell id="WTSWxPClVqbjlggbp4Lp-88" style="edgeStyle=orthogonalEdgeStyle;rounded=1;orthogonalLoop=1;jettySize=auto;html=1;exitX=0.75;exitY=1;exitDx=0;exitDy=0;entryX=0.169;entryY=0.715;entryDx=0;entryDy=0;entryPerimeter=0;curved=0;endArrow=open;endFill=0;" parent="Y5e2X1rM77SaJahhi9rT-25" source="WTSWxPClVqbjlggbp4Lp-55" target="WTSWxPClVqbjlggbp4Lp-87" edge="1">
          <mxGeometry relative="1" as="geometry">
            <mxPoint x="667" y="50" as="targetPoint" />
            <Array as="points">
              <mxPoint x="627" y="30" />
              <mxPoint x="665" y="30" />
            </Array>
          </mxGeometry>
        </mxCell>
        <mxCell id="WTSWxPClVqbjlggbp4Lp-89" style="edgeStyle=orthogonalEdgeStyle;rounded=1;orthogonalLoop=1;jettySize=auto;html=1;exitX=0.5;exitY=1;exitDx=0;exitDy=0;entryX=0.063;entryY=0.346;entryDx=0;entryDy=0;entryPerimeter=0;curved=0;endArrow=open;endFill=0;" parent="Y5e2X1rM77SaJahhi9rT-25" source="WTSWxPClVqbjlggbp4Lp-60" target="WTSWxPClVqbjlggbp4Lp-87" edge="1">
          <mxGeometry relative="1" as="geometry">
            <Array as="points">
              <mxPoint x="715" y="30" />
              <mxPoint x="695" y="30" />
            </Array>
          </mxGeometry>
        </mxCell>
        <mxCell id="WTSWxPClVqbjlggbp4Lp-86" style="edgeStyle=orthogonalEdgeStyle;rounded=1;orthogonalLoop=1;jettySize=auto;html=1;exitX=0.889;exitY=0.514;exitDx=0;exitDy=0;exitPerimeter=0;entryX=1;entryY=0.25;entryDx=0;entryDy=0;curved=0;endArrow=open;endFill=0;" parent="Y5e2X1rM77SaJahhi9rT-25" source="WTSWxPClVqbjlggbp4Lp-80" target="Y5e2X1rM77SaJahhi9rT-66" edge="1">
          <mxGeometry relative="1" as="geometry">
            <mxPoint x="350" y="150" as="targetPoint" />
          </mxGeometry>
        </mxCell>
        <mxCell id="WTSWxPClVqbjlggbp4Lp-30" style="edgeStyle=orthogonalEdgeStyle;rounded=1;orthogonalLoop=1;jettySize=auto;html=1;exitX=0.5;exitY=1;exitDx=0;exitDy=0;entryX=0.5;entryY=0;entryDx=0;entryDy=0;curved=0;endArrow=open;endFill=0;" parent="1" source="WTSWxPClVqbjlggbp4Lp-15" target="Y5e2X1rM77SaJahhi9rT-32" edge="1">
          <mxGeometry relative="1" as="geometry" />
        </mxCell>
        <mxCell id="WTSWxPClVqbjlggbp4Lp-16" value="" style="edgeStyle=orthogonalEdgeStyle;rounded=1;orthogonalLoop=1;jettySize=auto;html=1;exitX=0.5;exitY=1;exitDx=0;exitDy=0;entryX=0.5;entryY=0;entryDx=0;entryDy=0;curved=0;endArrow=open;endFill=0;" parent="1" source="Y5e2X1rM77SaJahhi9rT-66" target="WTSWxPClVqbjlggbp4Lp-15" edge="1">
          <mxGeometry relative="1" as="geometry">
            <mxPoint x="125" y="250" as="sourcePoint" />
            <mxPoint x="125" y="330" as="targetPoint" />
          </mxGeometry>
        </mxCell>
        <mxCell id="WTSWxPClVqbjlggbp4Lp-46" style="edgeStyle=orthogonalEdgeStyle;rounded=1;orthogonalLoop=1;jettySize=auto;html=1;exitX=0.5;exitY=0;exitDx=0;exitDy=0;entryX=0.82;entryY=0.5;entryDx=0;entryDy=0;entryPerimeter=0;curved=0;endArrow=open;endFill=0;" parent="1" source="Y5e2X1rM77SaJahhi9rT-88" target="WTSWxPClVqbjlggbp4Lp-44" edge="1">
          <mxGeometry relative="1" as="geometry">
            <Array as="points">
              <mxPoint x="185" y="380" />
              <mxPoint x="243" y="380" />
            </Array>
          </mxGeometry>
        </mxCell>
        <mxCell id="WTSWxPClVqbjlggbp4Lp-52" value="&lt;span style=&quot;font-size: 9px;&quot;&gt;[email exists]&lt;/span&gt;" style="edgeLabel;html=1;align=center;verticalAlign=middle;resizable=0;points=[];" parent="WTSWxPClVqbjlggbp4Lp-46" vertex="1" connectable="0">
          <mxGeometry x="-0.2753" y="-2" relative="1" as="geometry">
            <mxPoint x="12" y="6" as="offset" />
          </mxGeometry>
        </mxCell>
        <mxCell id="WTSWxPClVqbjlggbp4Lp-49" style="edgeStyle=orthogonalEdgeStyle;rounded=1;orthogonalLoop=1;jettySize=auto;html=1;exitX=0.185;exitY=0.281;exitDx=0;exitDy=0;exitPerimeter=0;curved=0;endArrow=open;endFill=0;jumpStyle=arc;entryX=0;entryY=0.75;entryDx=0;entryDy=0;" parent="1" source="WTSWxPClVqbjlggbp4Lp-44" target="Y5e2X1rM77SaJahhi9rT-75" edge="1">
          <mxGeometry relative="1" as="geometry">
            <mxPoint x="410" y="310" as="sourcePoint" />
            <mxPoint x="450" y="190" as="targetPoint" />
            <Array as="points">
              <mxPoint x="260" y="270" />
              <mxPoint x="420" y="270" />
              <mxPoint x="420" y="160" />
            </Array>
          </mxGeometry>
        </mxCell>
        <mxCell id="WTSWxPClVqbjlggbp4Lp-57" style="edgeStyle=orthogonalEdgeStyle;rounded=1;orthogonalLoop=1;jettySize=auto;html=1;entryX=0.58;entryY=0.985;entryDx=0;entryDy=0;exitX=0.036;exitY=0.752;exitDx=0;exitDy=0;exitPerimeter=0;curved=0;endArrow=open;endFill=0;entryPerimeter=0;" parent="1" source="WTSWxPClVqbjlggbp4Lp-56" target="Y5e2X1rM77SaJahhi9rT-92" edge="1">
          <mxGeometry relative="1" as="geometry">
            <mxPoint x="320" y="370" as="sourcePoint" />
          </mxGeometry>
        </mxCell>
        <mxCell id="WTSWxPClVqbjlggbp4Lp-69" style="edgeStyle=orthogonalEdgeStyle;rounded=1;orthogonalLoop=1;jettySize=auto;html=1;exitX=0.5;exitY=1;exitDx=0;exitDy=0;entryX=1;entryY=0.25;entryDx=0;entryDy=0;curved=0;endArrow=open;endFill=0;" parent="1" source="WTSWxPClVqbjlggbp4Lp-24" target="WTSWxPClVqbjlggbp4Lp-67" edge="1">
          <mxGeometry relative="1" as="geometry" />
        </mxCell>
        <mxCell id="WTSWxPClVqbjlggbp4Lp-70" value="&lt;font style=&quot;font-size: 9px;&quot;&gt;[valid]&lt;/font&gt;" style="edgeLabel;html=1;align=center;verticalAlign=middle;resizable=0;points=[];" parent="WTSWxPClVqbjlggbp4Lp-69" vertex="1" connectable="0">
          <mxGeometry x="0.0613" y="-1" relative="1" as="geometry">
            <mxPoint x="-10" y="-8" as="offset" />
          </mxGeometry>
        </mxCell>
        <mxCell id="WTSWxPClVqbjlggbp4Lp-74" style="edgeStyle=orthogonalEdgeStyle;rounded=1;orthogonalLoop=1;jettySize=auto;html=1;exitX=0.5;exitY=1;exitDx=0;exitDy=0;entryX=0.5;entryY=1;entryDx=0;entryDy=0;curved=0;endArrow=open;endFill=0;" parent="1" source="WTSWxPClVqbjlggbp4Lp-67" target="WTSWxPClVqbjlggbp4Lp-73" edge="1">
          <mxGeometry relative="1" as="geometry">
            <Array as="points">
              <mxPoint x="515" y="400" />
              <mxPoint x="680" y="400" />
              <mxPoint x="680" y="320" />
              <mxPoint x="800" y="320" />
            </Array>
          </mxGeometry>
        </mxCell>
        <mxCell id="WTSWxPClVqbjlggbp4Lp-79" style="edgeStyle=orthogonalEdgeStyle;rounded=1;orthogonalLoop=1;jettySize=auto;html=1;exitX=1;exitY=0.5;exitDx=0;exitDy=0;entryX=0.5;entryY=1;entryDx=0;entryDy=0;curved=0;endArrow=open;endFill=0;" parent="1" source="WTSWxPClVqbjlggbp4Lp-75" target="Y5e2X1rM77SaJahhi9rT-2" edge="1">
          <mxGeometry relative="1" as="geometry" />
        </mxCell>
        <mxCell id="WTSWxPClVqbjlggbp4Lp-73" value="Respond with&lt;div&gt;success message&lt;/div&gt;" style="html=1;align=center;verticalAlign=middle;rounded=1;absoluteArcSize=1;arcSize=19;dashed=0;whiteSpace=wrap;" parent="1" vertex="1">
          <mxGeometry x="750" y="230" width="100" height="40" as="geometry" />
        </mxCell>
        <mxCell id="WTSWxPClVqbjlggbp4Lp-92" style="edgeStyle=orthogonalEdgeStyle;rounded=1;orthogonalLoop=1;jettySize=auto;html=1;exitX=0.555;exitY=0.013;exitDx=0;exitDy=0;entryX=0.25;entryY=1;entryDx=0;entryDy=0;curved=0;endArrow=open;endFill=0;exitPerimeter=0;" parent="1" source="WTSWxPClVqbjlggbp4Lp-73" target="WTSWxPClVqbjlggbp4Lp-75" edge="1">
          <mxGeometry relative="1" as="geometry" />
        </mxCell>
        <mxCell id="munvRfBQ2IFROYm9csKq-44" style="edgeStyle=orthogonalEdgeStyle;rounded=1;orthogonalLoop=1;jettySize=auto;html=1;exitX=0.5;exitY=1;exitDx=0;exitDy=0;entryX=0.5;entryY=0;entryDx=0;entryDy=0;endArrow=open;endFill=0;curved=0;" parent="1" source="WTSWxPClVqbjlggbp4Lp-59" target="WTSWxPClVqbjlggbp4Lp-63" edge="1">
          <mxGeometry relative="1" as="geometry" />
        </mxCell>
        <mxCell id="zqb-nu4IpoxOfOdAN-1O-1" style="edgeStyle=orthogonalEdgeStyle;rounded=1;orthogonalLoop=1;jettySize=auto;html=1;exitX=0.162;exitY=0.115;exitDx=0;exitDy=0;exitPerimeter=0;entryX=0.25;entryY=1;entryDx=0;entryDy=0;curved=0;endArrow=open;endFill=0;" edge="1" parent="1" source="WTSWxPClVqbjlggbp4Lp-56" target="WTSWxPClVqbjlggbp4Lp-55">
          <mxGeometry relative="1" as="geometry">
            <mxPoint x="600" y="180" as="targetPoint" />
            <Array as="points">
              <mxPoint x="383" y="340" />
              <mxPoint x="440" y="340" />
              <mxPoint x="440" y="200" />
              <mxPoint x="602" y="200" />
            </Array>
          </mxGeometry>
        </mxCell>
        <mxCell id="zqb-nu4IpoxOfOdAN-1O-6" style="edgeStyle=orthogonalEdgeStyle;rounded=1;orthogonalLoop=1;jettySize=auto;html=1;exitX=-0.114;exitY=0.726;exitDx=0;exitDy=0;exitPerimeter=0;entryX=0.5;entryY=1;entryDx=0;entryDy=0;jumpStyle=arc;curved=0;endArrow=open;endFill=0;" edge="1" parent="1" source="WTSWxPClVqbjlggbp4Lp-44" target="Y5e2X1rM77SaJahhi9rT-8">
          <mxGeometry relative="1" as="geometry">
            <mxPoint x="275.3103448275863" y="180" as="targetPoint" />
            <Array as="points">
              <mxPoint x="224" y="250" />
              <mxPoint x="275" y="250" />
            </Array>
          </mxGeometry>
        </mxCell>
        <mxCell id="WTSWxPClVqbjlggbp4Lp-65" style="edgeStyle=orthogonalEdgeStyle;rounded=1;orthogonalLoop=1;jettySize=auto;html=1;exitX=1;exitY=0.5;exitDx=0;exitDy=0;entryX=0.5;entryY=1;entryDx=0;entryDy=0;jumpStyle=arc;curved=0;endArrow=open;endFill=0;" parent="1" source="WTSWxPClVqbjlggbp4Lp-24" target="WTSWxPClVqbjlggbp4Lp-55" edge="1">
          <mxGeometry relative="1" as="geometry">
            <mxPoint x="651.06" y="272.3849999999999" as="targetPoint" />
            <Array as="points">
              <mxPoint x="670" y="300" />
              <mxPoint x="670" y="213" />
              <mxPoint x="625" y="213" />
            </Array>
          </mxGeometry>
        </mxCell>
        <mxCell id="WTSWxPClVqbjlggbp4Lp-66" value="&lt;font style=&quot;font-size: 9px;&quot;&gt;[not valid]&lt;/font&gt;" style="edgeLabel;html=1;align=center;verticalAlign=middle;resizable=0;points=[];" parent="WTSWxPClVqbjlggbp4Lp-65" vertex="1" connectable="0">
          <mxGeometry x="-0.2293" relative="1" as="geometry">
            <mxPoint x="-26" y="40" as="offset" />
          </mxGeometry>
        </mxCell>
      </root>
    </mxGraphModel>
  </diagram>
</mxfile>
